<?xml version="1.0" encoding="UTF-8"?>
<svg xmlns="http://www.w3.org/2000/svg" viewBox="0 0 1600 900" preserveAspectRatio="xMidYMid slice">
  <rect width="1600" height="900" fill="#0F3B47"/>
  <!-- arches -->
  <path d="M200,780 L200,500 Q200,380 340,380 Q480,380 480,500 L480,780" stroke="#C9A24B" stroke-width="3" fill="none" opacity="0.6"/>
  <path d="M560,780 L560,460 Q560,320 720,320 Q880,320 880,460 L880,780" stroke="#C9A24B" stroke-width="3" fill="none" opacity="0.8"/>
  <path d="M960,780 L960,460 Q960,320 1120,320 Q1280,320 1280,460 L1280,780" stroke="#C9A24B" stroke-width="3" fill="none" opacity="0.8"/>
  <path d="M1360,780 L1360,500 Q1360,380 1500,380 Q1640,380 1640,500 L1640,780" stroke="#C9A24B" stroke-width="3" fill="none" opacity="0.6"/>
  <text x="720" y="460" text-anchor="middle" font-family="Georgia, serif" font-size="58" font-style="italic" fill="#E5C97A">Banquets</text>
  <text x="1120" y="460" text-anchor="middle" font-family="Georgia, serif" font-size="58" font-style="italic" fill="#E5C97A">&amp; Halls</text>
  <text x="800" y="600" text-anchor="middle" font-family="Inter, sans-serif" font-size="18" letter-spacing="6" fill="#C9A24B">EVENT VENUES</text>
</svg>
