<?xml version="1.0" encoding="UTF-8"?>
<svg xmlns="http://www.w3.org/2000/svg" viewBox="0 0 1600 900" preserveAspectRatio="xMidYMid slice">
  <rect width="1600" height="900" fill="#0F3B47"/>
  <!-- cabin silhouettes -->
  <g fill="#0B1B22">
    <polygon points="260,680 260,560 360,480 460,560 460,680"/>
    <rect x="280" y="580" width="160" height="100"/>
    <rect x="330" y="610" width="30" height="40" fill="#E5C97A" opacity="0.6"/>
  </g>
  <g fill="#0B1B22">
    <polygon points="700,680 700,560 800,480 900,560 900,680"/>
    <rect x="720" y="580" width="160" height="100"/>
    <rect x="770" y="610" width="30" height="40" fill="#E5C97A" opacity="0.6"/>
  </g>
  <g fill="#0B1B22">
    <polygon points="1140,680 1140,560 1240,480 1340,560 1340,680"/>
    <rect x="1160" y="580" width="160" height="100"/>
    <rect x="1210" y="610" width="30" height="40" fill="#E5C97A" opacity="0.6"/>
  </g>
  <!-- ground -->
  <rect x="0" y="680" width="1600" height="220" fill="#081318"/>
  <text x="800" y="340" text-anchor="middle" font-family="Georgia, serif" font-size="68" font-style="italic" fill="#E5C97A">Stays</text>
  <text x="800" y="400" text-anchor="middle" font-family="Inter, sans-serif" font-size="18" letter-spacing="6" fill="#C9A24B">SUITES &amp; CABINS</text>
</svg>
