<?xml version="1.0" encoding="UTF-8"?>
<svg xmlns="http://www.w3.org/2000/svg" viewBox="0 0 1600 900" preserveAspectRatio="xMidYMid slice">
  <defs>
    <linearGradient id="dawn" x1="0" y1="0" x2="0" y2="1">
      <stop offset="0%" stop-color="#0B1B22"/>
      <stop offset="50%" stop-color="#0F3B47"/>
      <stop offset="100%" stop-color="#0B1B22"/>
    </linearGradient>
  </defs>
  <rect width="1600" height="900" fill="url(#dawn)"/>
  <!-- sharp himalayan peaks -->
  <polygon points="0,560 140,280 260,440 420,220 560,400 700,180 860,380 1020,200 1180,420 1320,260 1480,380 1600,300 1600,900 0,900" fill="#081318"/>
  <polygon points="0,700 160,520 320,620 500,460 680,580 860,480 1040,600 1220,500 1400,620 1600,520 1600,900 0,900" fill="#050D10"/>
  <!-- snow caps -->
  <polygon points="380,280 420,220 460,280 440,300 400,300" fill="#F5EFE3" opacity="0.9"/>
  <polygon points="660,240 700,180 740,240 720,260 680,260" fill="#F5EFE3" opacity="0.9"/>
  <polygon points="980,260 1020,200 1060,260 1040,280 1000,280" fill="#F5EFE3" opacity="0.9"/>
  <text x="800" y="420" text-anchor="middle" font-family="Georgia, serif" font-size="68" font-style="italic" fill="#E5C97A">Himalayan Suites</text>
  <text x="800" y="490" text-anchor="middle" font-family="Inter, sans-serif" font-size="20" letter-spacing="6" fill="#C9A24B">MOUNTAIN-VIEW CABINS</text>
</svg>
