<?xml version="1.0" encoding="UTF-8"?>
<svg xmlns="http://www.w3.org/2000/svg" viewBox="0 0 1600 900" preserveAspectRatio="xMidYMid slice">
  <defs>
    <radialGradient id="glow" cx="50%" cy="55%" r="60%">
      <stop offset="0%" stop-color="#1A6B7A" stop-opacity="0.4"/>
      <stop offset="100%" stop-color="#0B1B22"/>
    </radialGradient>
  </defs>
  <rect width="1600" height="900" fill="url(#glow)"/>
  <!-- string lights -->
  <path d="M100,180 Q800,340 1500,180" stroke="#C9A24B" stroke-width="2" fill="none" opacity="0.7"/>
  <g fill="#E5C97A">
    <circle cx="220" cy="210" r="6"/><circle cx="360" cy="245" r="6"/><circle cx="500" cy="275" r="6"/>
    <circle cx="640" cy="305" r="6"/><circle cx="800" cy="320" r="6"/><circle cx="960" cy="305" r="6"/>
    <circle cx="1100" cy="275" r="6"/><circle cx="1240" cy="245" r="6"/><circle cx="1380" cy="210" r="6"/>
  </g>
  <!-- mandap arch -->
  <path d="M600,720 L600,540 Q600,400 800,400 Q1000,400 1000,540 L1000,720" stroke="#C9A24B" stroke-width="3" fill="none" opacity="0.7"/>
  <path d="M600,720 L1000,720" stroke="#C9A24B" stroke-width="3" opacity="0.5"/>
  <text x="800" y="440" text-anchor="middle" font-family="Georgia, serif" font-size="64" font-style="italic" fill="#E5C97A">Weddings</text>
  <text x="800" y="500" text-anchor="middle" font-family="Inter, sans-serif" font-size="18" letter-spacing="6" fill="#C9A24B">VOWS UNDER THE HIMALAYAS</text>
</svg>
